<svg version="1.1" id="Layer_1" xmlns="http://www.w3.org/2000/svg" xmlns:xlink="http://www.w3.org/1999/xlink" x="0px" y="0px"
	  width="200" height="90" preserveAspectRatio ="none" viewBox="0 0 1024 752" enable-background="new 0 0 1024 752" xml:space="preserve">
<path fill="#000000" opacity="1.000000" stroke="none" 
	d="
M736.241821,624.564636 
	C737.538940,630.805298 733.250488,631.093994 729.416016,631.247864 
	C718.930420,631.668823 708.433899,632.015686 697.941162,632.031738 
	C592.453552,632.193481 486.965363,632.156128 381.478363,632.498535 
	C360.154572,632.567749 338.840424,632.479675 317.524109,632.119507 
	C315.327454,632.082336 312.746277,632.679321 311.432922,629.862305 
	C309.528717,625.778015 311.397949,622.733582 316.027069,622.670410 
	C328.309357,622.502747 340.551147,621.789551 352.540161,620.559814 
	C353.217834,619.142639 352.535095,618.519165 351.920868,618.023865 
	C339.303345,607.849915 334.017883,594.003357 333.926056,578.478455 
	C333.575317,519.153687 333.458588,459.824280 333.819153,400.500061 
	C333.971252,375.476562 341.704376,352.758942 358.351624,333.505798 
	C363.305023,327.777039 369.176910,323.095245 375.158295,318.620270 
	C387.742035,309.205750 393.151672,296.325928 392.472809,281.250122 
	C391.504852,259.754211 391.824951,238.270905 391.740814,216.782227 
	C391.725342,212.837357 391.495819,209.897964 386.500031,209.909119 
	C384.860291,209.912796 383.560486,208.524231 382.336761,207.339905 
	C376.002625,201.209900 375.555450,193.725555 378.175903,186.081512 
	C380.313995,179.844421 385.863159,178.006241 392.046783,177.347031 
	C400.040070,176.494888 408.025208,176.937073 416.015259,176.897583 
	C419.492157,176.880402 422.969177,176.894699 426.579987,176.894699 
	C427.980408,169.949738 431.241577,163.935104 431.454742,156.939438 
	C431.585449,152.649857 430.344788,151.762146 426.421509,152.077454 
	C415.980865,152.916626 405.587891,154.524246 395.072296,154.271072 
	C392.774170,154.215744 390.356415,154.504639 388.419830,152.420853 
	C388.733582,149.169952 391.133545,148.249313 393.849457,147.705231 
	C398.788330,146.715820 403.796326,146.848907 408.793335,146.830521 
	C424.624664,146.772293 440.455994,146.680420 456.287323,146.680939 
	C464.495300,146.681213 467.044189,148.948288 467.681122,157.103851 
	C468.121674,162.745773 468.267120,168.421936 468.261108,174.082489 
	C468.258362,176.645721 468.642822,178.682434 471.154297,179.812881 
	C480.115082,183.846313 479.240601,203.132706 469.531372,209.122147 
	C468.703644,209.632751 467.631592,210.224915 466.760315,210.111115 
	C460.215424,209.256271 460.236206,213.268677 460.270355,218.027420 
	C460.423431,239.357346 460.501495,260.690552 460.288177,282.019409 
	C460.154846,295.353149 464.770874,306.283020 474.810181,315.103394 
	C482.558990,321.911377 490.500519,328.528748 496.837036,336.820343 
	C510.889923,355.209137 518.157593,376.255341 518.014648,399.039490 
	C517.647461,457.518982 518.412170,515.991455 518.337402,574.467224 
	C518.315552,591.518127 513.314453,606.164001 501.091095,618.189636 
	C500.660004,618.613770 500.381073,619.192627 500.045074,619.679199 
	C501.249390,621.118713 502.682739,620.642212 503.936554,620.645996 
	C515.935059,620.682739 527.933777,620.652222 539.932373,620.667664 
	C544.246765,620.673218 547.886414,619.706909 551.020264,616.184021 
	C556.644409,609.861450 564.454529,607.151306 572.330139,604.794800 
	C576.953125,603.411499 581.609863,602.139587 586.223572,600.726685 
	C597.421448,597.297424 604.667236,589.581543 605.249573,578.143005 
	C606.204041,559.395447 606.599670,540.542969 603.291809,521.855896 
	C602.544434,517.633728 600.556641,515.241638 596.632568,514.265442 
	C584.171204,511.165436 573.858459,504.241882 564.253723,496.092010 
	C544.015564,478.919403 532.464355,457.055084 529.677368,430.711487 
	C526.514038,400.810547 535.650391,374.139526 550.479858,348.543121 
	C556.009399,338.998840 562.123230,336.144226 572.833496,336.385468 
	C607.811646,337.173462 642.818115,336.857117 677.811768,336.647003 
	C683.285034,336.614136 686.464661,338.126862 689.345032,342.983307 
	C697.859009,357.338165 706.309387,371.589508 709.882446,388.201843 
	C715.517761,414.402100 715.099304,440.074768 703.499573,464.745148 
	C692.308105,488.547363 673.958130,504.625061 649.286621,513.473816 
	C640.850586,516.499573 638.657654,518.388184 638.451782,527.281738 
	C638.050842,544.602600 638.074036,561.936951 638.173950,579.264221 
	C638.218872,587.049500 642.190369,592.837891 648.760620,596.860535 
	C654.630432,600.454285 660.918091,603.008484 667.662354,604.472534 
	C677.734741,606.659058 687.153320,610.196106 694.470398,617.908508 
	C696.547302,620.097595 699.086731,620.787476 702.114014,620.838928 
	C710.435791,620.980408 718.759338,621.309692 727.067810,621.805237 
	C730.156921,621.989502 733.424744,622.051941 736.241821,624.564636 
M451.595276,304.647125 
	C449.708740,299.658600 447.827484,294.654602 447.705780,289.236115 
	C447.264709,269.597687 446.444885,249.965744 446.741486,230.314240 
	C446.831696,224.336777 446.755463,218.356827 446.755463,212.230255 
	C443.892303,213.644485 442.080444,211.132874 439.573303,211.220917 
	C429.751617,211.565811 419.906586,211.587784 410.080902,211.327347 
	C405.439209,211.204346 404.158295,212.853928 404.201294,217.391144 
	C404.420898,240.555618 404.711975,263.731598 404.197906,286.886230 
	C403.894806,300.539429 399.774384,313.051605 388.671295,322.334778 
	C384.198883,326.074127 379.436066,329.450562 375.033234,333.232635 
	C360.496399,345.719849 351.834412,361.598694 348.258545,380.433716 
	C345.411835,395.427734 345.678802,410.471954 345.832550,425.642700 
	C346.335999,475.304382 346.270752,524.972351 346.281464,574.637878 
	C346.282654,580.053589 347.088226,585.239685 348.580261,590.359253 
	C353.093628,605.845886 367.288055,618.190063 382.573669,618.525940 
	C412.226288,619.177612 441.889008,618.830872 471.540863,617.784485 
	C487.251526,617.230103 495.671143,607.503052 501.495544,594.514587 
	C503.639709,589.733032 501.945526,584.440796 498.245514,582.034241 
	C496.305878,582.602722 495.853668,586.568726 493.173187,584.816589 
	C491.115631,583.471619 491.342102,580.670959 491.535583,578.341858 
	C491.658600,576.860840 492.122955,575.406799 492.452332,573.944641 
	C493.221893,570.528320 493.917908,567.111206 493.984619,563.581177 
	C494.205353,551.903809 496.776978,540.794556 502.245392,530.424133 
	C503.281464,528.459229 503.729218,526.412659 503.890533,524.210571 
	C504.621490,514.230164 504.947815,504.232513 504.553040,494.241913 
	C504.238892,486.292389 504.087280,478.367096 501.756653,470.537659 
	C498.641602,460.073242 498.021667,449.318970 499.766205,438.379120 
	C500.864288,431.493042 503.971313,425.263458 504.451935,418.086609 
	C506.888306,381.705627 498.080109,350.024872 468.289734,326.485504 
	C461.085205,320.792725 455.774628,313.624969 451.595276,304.647125 
M621.499878,402.222198 
	C596.891174,402.986786 572.283752,400.940430 547.668396,402.203827 
	C544.024597,402.390808 542.432190,403.292084 542.134766,407.291138 
	C540.739014,426.057831 543.122375,443.852295 551.843018,460.963470 
	C568.400818,493.452332 602.438354,510.743500 638.033447,502.901154 
	C666.120178,496.713074 684.214539,478.670288 694.875977,452.373901 
	C701.053284,437.137695 699.473999,421.292114 699.622803,405.538116 
	C699.648865,402.779938 697.912598,401.817139 695.720337,402.402893 
	C689.763123,403.994720 683.895691,402.310303 677.992493,402.314301 
	C659.494995,402.326813 640.997498,402.261841 621.499878,402.222198 
M611.500549,349.274597 
	C597.508484,349.211426 583.515259,349.226837 569.525330,349.019836 
	C566.670776,348.977600 564.902710,350.065216 563.210083,352.161835 
	C555.233398,362.042328 550.838684,373.748169 546.063477,385.273651 
	C544.598633,388.809174 546.266174,389.261963 549.406677,389.787964 
	C562.824646,392.035431 576.291565,390.135956 589.718323,390.416504 
	C623.521545,391.122711 657.349121,390.674011 691.166870,390.638672 
	C693.084351,390.636658 695.149841,391.177551 697.301147,389.613159 
	C694.110474,377.771179 689.769958,366.441132 682.994690,355.971436 
	C679.233948,350.160034 675.244873,346.687622 667.941711,349.028961 
	C665.962524,349.663483 663.641724,349.281464 661.477722,349.282318 
	C645.151978,349.288757 628.826233,349.274323 611.500549,349.274597 
M609.073547,599.475342 
	C602.694336,606.969055 594.342285,611.162231 585.153503,614.153503 
	C579.307251,616.056824 573.103943,617.007324 567.676086,620.227295 
	C579.348145,619.805786 590.911987,618.951538 602.572205,619.475037 
	C612.526184,619.921997 622.536255,619.182617 632.519287,618.893555 
	C637.220276,618.757446 639.378296,615.376648 641.233887,611.706421 
	C643.089478,608.036255 639.840088,606.796448 638.006958,604.841187 
	C632.228210,598.677490 627.568298,591.943665 626.363464,583.254456 
	C625.188721,574.782654 625.939392,566.298340 625.864014,557.821960 
	C625.753357,545.378662 625.835571,532.933594 625.835571,520.026733 
	C622.355469,520.400452 620.359680,520.283936 618.086060,519.045593 
	C618.086060,522.531250 618.085205,525.346558 618.086182,528.161804 
	C618.090576,540.819946 618.288330,553.481812 618.043213,566.135132 
	C617.819580,577.679626 616.818909,589.136597 609.073547,599.475342 
M441.189148,192.056381 
	C441.676697,189.521271 440.028503,189.347046 438.206604,189.349121 
	C423.711334,189.365692 409.216064,189.375122 394.720795,189.397598 
	C391.938171,189.401901 390.160126,190.602982 390.446899,193.607803 
	C390.713470,196.401352 390.747589,199.627975 394.834869,199.600906 
	C407.807922,199.515030 420.780334,199.337967 433.753326,199.237244 
	C438.108551,199.203430 440.588684,197.163284 441.189148,192.056381 
M458.082275,192.533005 
	C458.637390,194.523087 456.302795,197.448120 459.612274,198.457550 
	C461.595917,199.062576 463.178711,197.701569 463.582123,195.657440 
	C463.982880,193.626846 464.965363,191.108597 462.645050,189.789795 
	C460.844910,188.766632 458.683716,188.899200 458.082275,192.533005 
z"/>
<path fill="#000000" opacity="1.000000" stroke="none" 
	d="
M586.186035,739.718018 
	C585.476807,737.981995 584.870789,736.612610 584.350525,735.211548 
	C582.705811,730.781982 579.844482,728.923767 574.852722,729.204102 
	C566.892090,729.651123 558.887451,729.352478 550.901917,729.296326 
	C548.530884,729.279663 546.613403,729.613159 546.119995,732.440125 
	C544.196777,743.459167 537.422791,747.356079 526.778442,745.531494 
	C526.164612,745.426270 525.517151,745.517822 524.305481,745.517822 
	C526.732056,737.148865 530.952637,729.998901 534.230835,722.479553 
	C541.600342,705.575745 549.264160,688.800476 556.712769,671.930725 
	C557.623779,669.867432 558.674133,668.594238 561.074097,668.685486 
	C563.565735,668.780212 566.064148,668.680054 568.559387,668.700195 
	C570.101501,668.712646 571.390747,668.952026 572.153870,670.699585 
	C582.794189,695.065857 593.498596,719.404114 604.166992,743.758118 
	C604.281006,744.018372 604.123901,744.397400 604.025635,745.438538 
	C599.367249,745.438538 594.624146,745.610413 589.900818,745.378540 
	C586.712585,745.222046 587.420227,741.924805 586.186035,739.718018 
M564.394226,692.523315 
	C560.086060,699.635864 556.726990,707.174072 553.131287,715.701050 
	C561.102417,715.293335 567.910889,714.945129 575.609070,714.551392 
	C571.002930,707.098511 568.077332,699.902344 564.394226,692.523315 
z"/>
<path fill="#000000" opacity="1.000000" stroke="none" 
	d="
M677.881348,692.885132 
	C674.865540,696.018250 672.240051,699.053284 669.300720,701.745605 
	C666.218689,704.568726 666.574768,706.855103 669.361938,709.662292 
	C675.695007,716.040771 681.842041,722.604370 688.043518,729.112976 
	C692.618286,733.914429 696.941711,738.912964 700.526550,745.255859 
	C694.454224,745.255859 688.896545,745.298584 683.340088,745.234131 
	C681.220459,745.209534 680.358398,743.298584 679.131287,742.000305 
	C671.240540,733.651978 663.379395,725.275757 655.474609,716.940918 
	C654.480652,715.892883 653.574646,714.538757 650.606323,714.895325 
	C649.917725,724.626587 650.775146,734.715637 649.037109,744.930603 
	C644.625977,745.862122 640.043518,745.133301 635.742432,745.486572 
	C634.263428,743.413208 634.707764,741.521362 634.705627,739.743469 
	C634.679749,717.922546 634.816833,696.100586 634.609863,674.281677 
	C634.567566,669.826660 635.966309,668.185486 640.308716,668.666016 
	C643.418152,669.010132 646.603027,668.252625 649.964172,669.161194 
	C649.964172,679.512512 649.964172,689.844055 649.964172,701.547119 
	C659.453735,691.158997 668.224487,681.894836 676.529846,672.230591 
	C678.626221,669.791260 680.417358,668.554688 683.539673,668.747925 
	C688.110352,669.030884 692.794678,668.268127 697.765320,670.405701 
	C691.241516,678.252869 685.607910,686.233093 677.881348,692.885132 
z"/>
<path fill="#000000" opacity="1.000000" stroke="none" 
	d="
M779.288269,679.847046 
	C779.232178,683.659912 776.766724,683.291504 774.638123,683.302063 
	C764.643311,683.351624 754.646301,683.483704 744.654297,683.323547 
	C740.809326,683.261841 738.811646,684.161926 740.075317,688.399536 
	C740.214050,688.864746 740.144409,689.392944 740.165771,689.892090 
	C740.622253,700.561462 740.622131,700.561340 751.138550,700.599976 
	C757.302063,700.622620 763.468506,700.766357 769.627991,700.620300 
	C772.962646,700.541260 774.706299,701.569641 774.334839,705.156006 
	C774.198242,706.474609 774.199768,707.830078 774.330383,709.149658 
	C774.724365,713.130066 772.839783,714.404480 769.042908,714.339233 
	C760.716675,714.196167 752.384827,714.414062 744.056641,714.336243 
	C740.434631,714.302368 738.593872,715.450745 739.674927,719.359985 
	C739.851501,719.998413 739.933472,720.667847 740.008728,721.328674 
	C741.088135,730.804382 741.085876,730.769409 750.443726,730.707092 
	C758.772644,730.651672 767.104065,730.789978 775.430420,730.631836 
	C778.982788,730.564392 780.597046,731.655029 780.418640,735.477051 
	C779.937378,745.787170 782.107361,745.133850 770.776245,745.259521 
	C757.450928,745.407349 744.122192,745.234436 730.796692,745.374329 
	C727.392151,745.410034 725.998047,744.235229 725.988953,740.782227 
	C725.929260,718.135742 725.758301,695.489563 725.643982,672.843262 
	C725.638184,671.693604 725.818726,670.543091 725.904480,669.490967 
	C727.485107,668.130188 729.223450,668.694641 730.821106,668.690186 
	C744.480957,668.652283 758.140991,668.676575 771.800964,668.682068 
	C779.350342,668.685059 779.350830,668.684814 779.326050,676.366272 
	C779.322815,677.365845 779.311401,678.365417 779.288269,679.847046 
z"/>
<path fill="#000000" opacity="1.000000" stroke="none" 
	d="
M265.501404,743.854980 
	C259.220917,740.993408 253.779724,737.609131 248.806824,732.734253 
	C251.894226,728.725647 256.150085,726.443604 258.898224,722.160522 
	C263.910980,727.009155 269.402710,730.497375 276.324738,730.869080 
	C277.975586,730.957703 279.693298,731.028320 281.288391,730.682922 
	C285.107056,729.856140 288.346436,727.860596 288.721222,723.688232 
	C289.121826,719.228516 285.605225,717.713318 282.006805,717.079102 
	C274.039520,715.674866 266.865082,712.865845 260.030365,708.271179 
	C247.448517,699.813049 249.696976,683.312866 259.354004,675.308167 
	C272.003357,664.823181 290.448242,665.378967 302.912354,677.066162 
	C300.323883,682.190552 295.651123,685.867615 292.827698,690.866028 
	C289.702698,689.953430 288.509583,687.281982 286.351074,685.797729 
	C281.236481,682.280884 274.364105,682.256165 270.135803,685.967407 
	C266.295319,689.338135 266.497162,692.955139 270.799652,695.734253 
	C274.322784,698.009949 278.249969,699.419739 282.260864,700.564697 
	C286.280060,701.712219 290.051208,703.383362 293.760651,705.313904 
	C310.205872,713.872742 306.104431,731.201782 296.782196,739.366455 
	C287.505463,747.491211 276.965210,747.751587 265.501404,743.854980 
z"/>
<path fill="#000000" opacity="1.000000" stroke="none" 
	d="
M478.809235,682.394775 
	C474.526794,682.210327 471.152679,683.359680 468.562073,686.317749 
	C465.374908,689.956970 465.778625,692.837341 470.025940,695.252625 
	C472.466614,696.640564 475.141052,697.650085 477.777679,698.652588 
	C481.196472,699.952637 484.704895,701.015625 488.135101,702.287476 
	C496.233185,705.290039 503.649384,709.164429 504.273590,719.141602 
	C504.972107,730.306152 499.778229,738.449707 489.389130,743.346680 
	C478.062561,748.685486 459.240143,744.786133 450.977692,735.493958 
	C449.521912,733.856628 449.698395,732.511292 451.048615,731.166931 
	C453.283325,728.941772 455.619598,726.818726 458.204559,724.377502 
	C464.596283,728.298035 471.665222,731.411926 479.819397,730.843506 
	C484.380646,730.525513 488.407898,727.313049 488.582489,723.490662 
	C488.802887,718.667175 485.433929,716.723999 481.528259,715.764465 
	C476.845825,714.614197 472.114624,713.699524 467.623932,711.870544 
	C456.126740,707.187927 449.506683,697.898132 450.989471,688.491150 
	C452.789429,677.071899 462.180817,668.828796 474.593323,667.703796 
	C483.982605,666.852661 496.169159,670.438904 503.246918,678.954651 
	C498.526703,681.230347 496.179932,685.632141 493.480957,690.582703 
	C489.530670,685.705750 485.051147,682.738831 478.809235,682.394775 
z"/>
<path fill="#000000" opacity="1.000000" stroke="none" 
	d="
M382.319977,678.723145 
	C382.502533,681.934448 380.678131,682.586426 378.515228,682.690308 
	C374.694397,682.873840 370.852631,683.201965 367.048035,682.980896 
	C363.252289,682.760437 361.308685,683.492615 360.942810,687.925476 
	C360.378052,694.768250 360.628052,701.510254 360.960236,708.342407 
	C361.493744,719.314087 361.170563,730.325623 361.330231,741.318542 
	C361.374695,744.378479 360.073090,745.468811 357.139282,745.356628 
	C353.652710,745.223206 350.157166,745.325256 346.788300,745.325256 
	C345.037994,743.460693 345.669647,741.358337 345.664062,739.449768 
	C345.614899,722.622864 345.526520,705.794312 345.727753,688.969604 
	C345.779083,684.677795 344.583923,682.829834 340.080963,683.263000 
	C336.614594,683.596436 333.082886,683.184082 329.593262,683.360596 
	C325.824982,683.551270 324.463654,681.813965 324.778290,678.257324 
	C325.069702,674.962952 325.264618,671.660034 325.511353,668.231201 
	C329.426270,667.306091 332.955963,668.841125 336.577301,668.739075 
	C349.222534,668.382690 361.877106,668.971130 374.527710,667.970154 
	C382.292969,667.355774 382.320618,667.697693 382.338501,675.257263 
	C382.340881,676.256897 382.333771,677.256470 382.319977,678.723145 
z"/>
<path fill="#000000" opacity="1.000000" stroke="none" 
	d="
M421.895081,730.707520 
	C422.556458,737.126953 419.489990,743.127686 414.378113,745.485413 
	C409.827179,747.584351 405.899902,745.661438 402.475616,742.771545 
	C397.950287,738.952454 396.998199,734.954346 399.120667,730.370850 
	C401.039978,726.226074 406.933197,722.639832 411.341400,723.096741 
	C416.096008,723.589661 420.047058,725.369507 421.895081,730.707520 
z"/>
<path fill="#000000" opacity="1.000000" stroke="none" 
	d="
M441.002289,415.245789 
	C439.136658,418.509430 437.145874,419.922516 433.521576,418.139130 
	C430.151215,416.480774 426.330017,417.207611 422.704224,417.479584 
	C420.990906,417.608154 419.373932,418.625519 419.122406,420.451477 
	C418.883514,422.185974 420.462769,422.998352 421.829346,423.626923 
	C422.872375,424.106689 424.001434,424.418915 425.114960,424.722168 
	C427.674622,425.419220 430.271057,425.988770 432.811737,426.746826 
	C439.957855,428.878906 444.620300,434.087677 443.887421,439.014832 
	C442.834808,446.091827 436.286163,451.873932 429.164154,452.370819 
	C423.129425,452.791809 417.715027,450.805603 412.311401,448.634827 
	C409.638672,447.561066 409.033966,445.463135 410.009735,442.923462 
	C411.039551,440.243134 412.968384,438.797363 415.874786,439.892853 
	C418.660553,440.942871 421.254059,442.430756 424.187592,443.198975 
	C426.716156,443.861115 428.758972,443.107361 430.788971,441.875153 
	C432.185272,441.027649 432.857971,439.764374 432.730255,438.106750 
	C432.590759,436.296539 431.416931,435.541016 429.808105,435.226929 
	C426.392059,434.559998 422.924622,434.084991 419.571320,433.184753 
	C414.661346,431.866608 409.767548,430.091583 408.787262,424.219940 
	C407.741882,417.958313 410.476562,413.257385 415.795319,409.964905 
	C423.028870,405.487122 432.912903,405.898102 439.231110,410.913177 
	C440.554382,411.963562 442.071747,412.841827 441.002289,415.245789 
z"/>
<path fill="#000000" opacity="1.000000" stroke="none" 
	d="
M407.821716,477.162231 
	C409.033173,474.456238 411.180511,474.750031 413.126099,474.742920 
	C421.931702,474.710693 430.737610,474.770782 439.543213,474.736786 
	C442.407501,474.725739 444.465271,475.321472 444.228394,478.871460 
	C444.002899,482.250885 442.643951,484.069672 438.976929,483.932159 
	C430.338776,483.608185 430.331818,483.670593 430.322693,492.273895 
	C430.316681,497.924469 430.204254,503.578735 430.374268,509.224274 
	C430.477356,512.646790 428.837708,513.463745 425.804688,513.377258 
	C422.918762,513.294922 420.657410,513.256470 420.600891,509.278748 
	C420.481445,500.869263 419.956909,492.465515 419.601624,484.131927 
	C407.871857,483.355011 407.871857,483.355011 407.821716,477.162231 
z"/>
<path fill="#000000" opacity="1.000000" stroke="none" 
	d="
M430.243958,556.000610 
	C430.265625,558.158691 430.291504,559.821228 430.302704,561.483948 
	C430.358978,569.836182 430.357635,569.836182 420.654510,569.108826 
	C420.654510,562.475525 420.388947,555.724487 420.743195,549.006104 
	C421.000854,544.120361 419.945099,541.478821 414.349701,541.908875 
	C411.158325,542.154175 408.561676,540.897339 408.646240,536.726257 
	C408.735474,532.325378 411.699646,532.676392 414.538086,532.688721 
	C422.352783,532.722778 430.167969,532.905945 437.981476,532.843140 
	C441.764374,532.812744 444.032684,533.942261 443.998566,538.169617 
	C443.964539,542.390320 441.169189,542.394287 438.189453,542.324829 
	C437.026154,542.297729 435.851685,542.420166 434.699615,542.303406 
	C431.122314,541.940674 429.972565,543.691711 430.178009,547.027344 
	C430.351501,549.843933 430.231506,552.678589 430.243958,556.000610 
z"/>
<path fill="#000000" opacity="1.000000" stroke="none" 
	d="
M660.942261,485.028076 
	C658.919800,486.412231 657.359558,488.068390 653.898804,487.248077 
	C658.634644,474.992889 668.065002,465.857819 673.026550,454.174042 
	C677.935242,442.614685 686.846558,433.345856 692.689270,421.979889 
	C698.445496,434.257172 679.924866,470.821503 660.942261,485.028076 
z"/>
</svg>